{
    "asset" : {
        "generator" : "Khronos glTF Blender I/O v1.3.48",
        "version" : "2.0"
    },
    "scene" : 0,
    "scenes" : [
        {
            "name" : "Scene",
            "nodes" : [
                0,
                1,
                2
            ]
        }
    ],
    "nodes" : [
        {
            "name" : "Light",
            "rotation" : [
                0.16907575726509094,
                0.7558803558349609,
                -0.27217137813568115,
                0.570947527885437
            ],
            "translation" : [
                4.076245307922363,
                2.2737913131713867,
                -1.0054539442062378
            ]
        },
        {
            "name" : "Camera",
            "rotation" : [
                0.483536034822464,
                0.33687159419059753,
                -0.20870360732078552,
                0.7804827094078064
            ],
            "translation" : [
                7.358891487121582,
                4.958309173583984,
                6.925790786743164
            ]
        },
        {
            "mesh" : 0,
            "name" : "Sphere",
            "translation" : [
                0,
                3.125372886657715,
                0
            ]
        }
    ],
    "materials" : [
        {
            "doubleSided" : true,
            "emissiveFactor" : [
                0,
                0,
                0
            ],
            "name" : "Material.002",
            "pbrMetallicRoughness" : {
                "baseColorFactor" : [
                    1,
                    0.7120507955551147,
                    0.7865009903907776,
                    1
                ],
                "metallicFactor" : 0.368794322013855,
                "roughnessFactor" : 0.5
            }
        },
        {
            "doubleSided" : true,
            "emissiveFactor" : [
                0,
                0,
                0
            ],
            "name" : "Material.003",
            "pbrMetallicRoughness" : {
                "baseColorFactor" : [
                    0.0021582820918411016,
                    0.003330486360937357,
                    0.003471646923571825,
                    1
                ],
                "metallicFactor" : 0,
                "roughnessFactor" : 0.5
            }
        },
        {
            "doubleSided" : true,
            "emissiveFactor" : [
                0,
                0,
                0
            ],
            "name" : "Material",
            "pbrMetallicRoughness" : {
                "baseColorFactor" : [
                    0.800000011920929,
                    0.800000011920929,
                    0.800000011920929,
                    1
                ],
                "metallicFactor" : 0,
                "roughnessFactor" : 0.4000000059604645
            }
        }
    ],
    "meshes" : [
        {
            "name" : "Sphere",
            "primitives" : [
                {
                    "attributes" : {
                        "POSITION" : 0,
                        "NORMAL" : 1,
                        "TEXCOORD_0" : 2,
                        "COLOR_0" : 3
                    },
                    "indices" : 4,
                    "material" : 0
                },
                {
                    "attributes" : {
                        "POSITION" : 5,
                        "NORMAL" : 6,
                        "TEXCOORD_0" : 7,
                        "COLOR_0" : 8
                    },
                    "indices" : 9,
                    "material" : 1
                },
                {
                    "attributes" : {
                        "POSITION" : 10,
                        "NORMAL" : 11,
                        "TEXCOORD_0" : 12,
                        "COLOR_0" : 13
                    },
                    "indices" : 14,
                    "material" : 2
                }
            ]
        }
    ],
    "accessors" : [
        {
            "bufferView" : 0,
            "componentType" : 5126,
            "count" : 1512,
            "max" : [
                1.3806838989257812,
                1.3585665225982666,
                0.9239059686660767
            ],
            "min" : [
                -1.3806837797164917,
                -1.21177339553833,
                -1.121091604232788
            ],
            "type" : "VEC3"
        },
        {
            "bufferView" : 1,
            "componentType" : 5126,
            "count" : 1512,
            "type" : "VEC3"
        },
        {
            "bufferView" : 2,
            "componentType" : 5126,
            "count" : 1512,
            "type" : "VEC2"
        },
        {
            "bufferView" : 3,
            "componentType" : 5126,
            "count" : 1512,
            "type" : "VEC4"
        },
        {
            "bufferView" : 4,
            "componentType" : 5123,
            "count" : 2268,
            "type" : "SCALAR"
        },
        {
            "bufferView" : 5,
            "componentType" : 5126,
            "count" : 448,
            "max" : [
                1.3806838989257812,
                1.3585665225982666,
                1.2141335010528564
            ],
            "min" : [
                -1.3806837797164917,
                -1.2186161279678345,
                -0.2502656579017639
            ],
            "type" : "VEC3"
        },
        {
            "bufferView" : 6,
            "componentType" : 5126,
            "count" : 448,
            "type" : "VEC3"
        },
        {
            "bufferView" : 7,
            "componentType" : 5126,
            "count" : 448,
            "type" : "VEC2"
        },
        {
            "bufferView" : 8,
            "componentType" : 5126,
            "count" : 448,
            "type" : "VEC4"
        },
        {
            "bufferView" : 9,
            "componentType" : 5123,
            "count" : 576,
            "type" : "SCALAR"
        },
        {
            "bufferView" : 10,
            "componentType" : 5126,
            "count" : 24,
            "max" : [
                0.6721084117889404,
                0.44340038299560547,
                1.140209436416626
            ],
            "min" : [
                -0.6721962094306946,
                -0.42097896337509155,
                0.937977135181427
            ],
            "type" : "VEC3"
        },
        {
            "bufferView" : 11,
            "componentType" : 5126,
            "count" : 24,
            "type" : "VEC3"
        },
        {
            "bufferView" : 12,
            "componentType" : 5126,
            "count" : 24,
            "type" : "VEC2"
        },
        {
            "bufferView" : 13,
            "componentType" : 5126,
            "count" : 24,
            "type" : "VEC4"
        },
        {
            "bufferView" : 14,
            "componentType" : 5123,
            "count" : 36,
            "type" : "SCALAR"
        }
    ],
    "bufferViews" : [
        {
            "buffer" : 0,
            "byteLength" : 18144,
            "byteOffset" : 0
        },
        {
            "buffer" : 0,
            "byteLength" : 18144,
            "byteOffset" : 18144
        },
        {
            "buffer" : 0,
            "byteLength" : 12096,
            "byteOffset" : 36288
        },
        {
            "buffer" : 0,
            "byteLength" : 24192,
            "byteOffset" : 48384
        },
        {
            "buffer" : 0,
            "byteLength" : 4536,
            "byteOffset" : 72576
        },
        {
            "buffer" : 0,
            "byteLength" : 5376,
            "byteOffset" : 77112
        },
        {
            "buffer" : 0,
            "byteLength" : 5376,
            "byteOffset" : 82488
        },
        {
            "buffer" : 0,
            "byteLength" : 3584,
            "byteOffset" : 87864
        },
        {
            "buffer" : 0,
            "byteLength" : 7168,
            "byteOffset" : 91448
        },
        {
            "buffer" : 0,
            "byteLength" : 1152,
            "byteOffset" : 98616
        },
        {
            "buffer" : 0,
            "byteLength" : 288,
            "byteOffset" : 99768
        },
        {
            "buffer" : 0,
            "byteLength" : 288,
            "byteOffset" : 100056
        },
        {
            "buffer" : 0,
            "byteLength" : 192,
            "byteOffset" : 100344
        },
        {
            "buffer" : 0,
            "byteLength" : 384,
            "byteOffset" : 100536
        },
        {
            "buffer" : 0,
            "byteLength" : 72,
            "byteOffset" : 100920
        }
    ],
    "buffers" : [
        {
            "byteLength" : 100992,
            "uri" : "data:application/octet-stream;base64,"
        }
    ]
}
