{
    "asset" : {
        "generator" : "Khronos glTF Blender I/O v1.3.48",
        "version" : "2.0"
    },
    "scene" : 0,
    "scenes" : [
        {
            "name" : "Scene",
            "nodes" : [
                0,
                1,
                2
            ]
        }
    ],
    "nodes" : [
        {
            "name" : "Light",
            "rotation" : [
                0.16907575726509094,
                0.7558803558349609,
                -0.27217137813568115,
                0.570947527885437
            ],
            "translation" : [
                4.076245307922363,
                2.2737913131713867,
                -1.0054539442062378
            ]
        },
        {
            "name" : "Camera",
            "rotation" : [
                0.483536034822464,
                0.33687159419059753,
                -0.20870360732078552,
                0.7804827094078064
            ],
            "translation" : [
                7.358891487121582,
                4.958309173583984,
                6.925790786743164
            ]
        },
        {
            "mesh" : 0,
            "name" : "Sphere",
            "translation" : [
                0,
                3.125372886657715,
                0
            ]
        }
    ],
    "materials" : [
        {
            "doubleSided" : true,
            "emissiveFactor" : [
                0,
                0,
                0
            ],
            "name" : "Material.002",
            "pbrMetallicRoughness" : {
                "baseColorFactor" : [
                    1,
                    0.7120507955551147,
                    0.7865009903907776,
                    1
                ],
                "metallicFactor" : 0.368794322013855,
                "roughnessFactor" : 0.5
            }
        },
        {
            "doubleSided" : true,
            "emissiveFactor" : [
                0,
                0,
                0
            ],
            "name" : "Material.003",
            "pbrMetallicRoughness" : {
                "baseColorFactor" : [
                    0.0021582820918411016,
                    0.003330486360937357,
                    0.003471646923571825,
                    1
                ],
                "metallicFactor" : 0,
                "roughnessFactor" : 0.5
            }
        },
        {
            "doubleSided" : true,
            "emissiveFactor" : [
                0,
                0,
                0
            ],
            "name" : "Material",
            "pbrMetallicRoughness" : {
                "baseColorFactor" : [
                    0.800000011920929,
                    0.800000011920929,
                    0.800000011920929,
                    1
                ],
                "metallicFactor" : 0,
                "roughnessFactor" : 0.4000000059604645
            }
        }
    ],
    "meshes" : [
        {
            "name" : "Sphere",
            "primitives" : [
                {
                    "attributes" : {
                        "POSITION" : 0,
                        "NORMAL" : 1,
                        "TEXCOORD_0" : 2,
                        "COLOR_0" : 3
                    },
                    "indices" : 4,
                    "material" : 0
                },
                {
                    "attributes" : {
                        "POSITION" : 5,
                        "NORMAL" : 6,
                        "TEXCOORD_0" : 7,
                        "COLOR_0" : 8
                    },
                    "indices" : 9,
                    "material" : 1
                },
                {
                    "attributes" : {
                        "POSITION" : 10,
                        "NORMAL" : 11,
                        "TEXCOORD_0" : 12,
                        "COLOR_0" : 13
                    },
                    "indices" : 14,
                    "material" : 2
                }
            ]
        }
    ],
    "accessors" : [
        {
            "bufferView" : 0,
            "componentType" : 5126,
            "count" : 483,
            "max" : [
                1.3806838989257812,
                1.1094555854797363,
                0.878016471862793
            ],
            "min" : [
                -1.3806837797164917,
                -1.21177339553833,
                -1.121091604232788
            ],
            "type" : "VEC3"
        },
        {
            "bufferView" : 1,
            "componentType" : 5126,
            "count" : 483,
            "type" : "VEC3"
        },
        {
            "bufferView" : 2,
            "componentType" : 5126,
            "count" : 483,
            "type" : "VEC2"
        },
        {
            "bufferView" : 3,
            "componentType" : 5126,
            "count" : 483,
            "type" : "VEC4"
        },
        {
            "bufferView" : 4,
            "componentType" : 5123,
            "count" : 2484,
            "type" : "SCALAR"
        },
        {
            "bufferView" : 5,
            "componentType" : 5126,
            "count" : 230,
            "max" : [
                1.3806838989257812,
                1.1094555854797363,
                1.0138369798660278
            ],
            "min" : [
                -1.3806837797164917,
                -1.2186161279678345,
                -0.2502656579017639
            ],
            "type" : "VEC3"
        },
        {
            "bufferView" : 6,
            "componentType" : 5126,
            "count" : 230,
            "type" : "VEC3"
        },
        {
            "bufferView" : 7,
            "componentType" : 5126,
            "count" : 230,
            "type" : "VEC2"
        },
        {
            "bufferView" : 8,
            "componentType" : 5126,
            "count" : 230,
            "type" : "VEC4"
        },
        {
            "bufferView" : 9,
            "componentType" : 5123,
            "count" : 564,
            "type" : "SCALAR"
        },
        {
            "bufferView" : 10,
            "componentType" : 5126,
            "count" : 18,
            "max" : [
                0.6721060276031494,
                0.42684152722358704,
                0.9399129152297974
            ],
            "min" : [
                -0.6721985936164856,
                -0.43275952339172363,
                0.7376806139945984
            ],
            "type" : "VEC3"
        },
        {
            "bufferView" : 11,
            "componentType" : 5126,
            "count" : 18,
            "type" : "VEC3"
        },
        {
            "bufferView" : 12,
            "componentType" : 5126,
            "count" : 18,
            "type" : "VEC2"
        },
        {
            "bufferView" : 13,
            "componentType" : 5126,
            "count" : 18,
            "type" : "VEC4"
        },
        {
            "bufferView" : 14,
            "componentType" : 5123,
            "count" : 36,
            "type" : "SCALAR"
        }
    ],
    "bufferViews" : [
        {
            "buffer" : 0,
            "byteLength" : 5796,
            "byteOffset" : 0
        },
        {
            "buffer" : 0,
            "byteLength" : 5796,
            "byteOffset" : 5796
        },
        {
            "buffer" : 0,
            "byteLength" : 3864,
            "byteOffset" : 11592
        },
        {
            "buffer" : 0,
            "byteLength" : 7728,
            "byteOffset" : 15456
        },
        {
            "buffer" : 0,
            "byteLength" : 4968,
            "byteOffset" : 23184
        },
        {
            "buffer" : 0,
            "byteLength" : 2760,
            "byteOffset" : 28152
        },
        {
            "buffer" : 0,
            "byteLength" : 2760,
            "byteOffset" : 30912
        },
        {
            "buffer" : 0,
            "byteLength" : 1840,
            "byteOffset" : 33672
        },
        {
            "buffer" : 0,
            "byteLength" : 3680,
            "byteOffset" : 35512
        },
        {
            "buffer" : 0,
            "byteLength" : 1128,
            "byteOffset" : 39192
        },
        {
            "buffer" : 0,
            "byteLength" : 216,
            "byteOffset" : 40320
        },
        {
            "buffer" : 0,
            "byteLength" : 216,
            "byteOffset" : 40536
        },
        {
            "buffer" : 0,
            "byteLength" : 144,
            "byteOffset" : 40752
        },
        {
            "buffer" : 0,
            "byteLength" : 288,
            "byteOffset" : 40896
        },
        {
            "buffer" : 0,
            "byteLength" : 72,
            "byteOffset" : 41184
        }
    ],
    "buffers" : [
        {
            "byteLength" : 41256,
            "uri" : "data:application/octet-stream;base64,"
        }
    ]
}
