{
    "asset" : {
        "generator" : "Khronos glTF Blender I/O v1.3.48",
        "version" : "2.0"
    },
    "scene" : 0,
    "scenes" : [
        {
            "name" : "Scene",
            "nodes" : [
                0,
                1,
                2
            ]
        }
    ],
    "nodes" : [
        {
            "name" : "Light",
            "rotation" : [
                0.16907575726509094,
                0.7558803558349609,
                -0.27217137813568115,
                0.570947527885437
            ],
            "scale" : [
                0.8680238127708435,
                0.9411296844482422,
                0.8943116664886475
            ],
            "translation" : [
                3.7147130966186523,
                5.903861999511719,
                -0.9389726519584656
            ]
        },
        {
            "name" : "Camera",
            "rotation" : [
                0.483536034822464,
                0.33687159419059753,
                -0.20870360732078552,
                0.7804827094078064
            ],
            "translation" : [
                7.358891487121582,
                4.958309173583984,
                6.925790786743164
            ]
        },
        {
            "mesh" : 0,
            "name" : "Cylinder",
            "scale" : [
                0.8226150274276733,
                1,
                0.8677586317062378
            ],
            "translation" : [
                0.03444826602935791,
                0.4933430254459381,
                -0.06648129224777222
            ]
        }
    ],
    "materials" : [
        {
            "doubleSided" : true,
            "emissiveFactor" : [
                0,
                0,
                0
            ],
            "name" : "Material.007",
            "pbrMetallicRoughness" : {
                "baseColorFactor" : [
                    1,
                    0.7120507955551147,
                    0.7865009903907776,
                    1
                ],
                "metallicFactor" : 0.368794322013855,
                "roughnessFactor" : 0.5
            }
        },
        {
            "doubleSided" : true,
            "emissiveFactor" : [
                0,
                0,
                0
            ],
            "name" : "Material.004",
            "pbrMetallicRoughness" : {
                "baseColorFactor" : [
                    0.9000636339187622,
                    0.0007813789416104555,
                    1,
                    1
                ],
                "metallicFactor" : 0,
                "roughnessFactor" : 0.5
            }
        }
    ],
    "meshes" : [
        {
            "name" : "Cylinder.004",
            "primitives" : [
                {
                    "attributes" : {
                        "POSITION" : 0,
                        "NORMAL" : 1,
                        "TEXCOORD_0" : 2
                    },
                    "indices" : 3,
                    "material" : 0
                },
                {
                    "attributes" : {
                        "POSITION" : 4,
                        "NORMAL" : 5,
                        "TEXCOORD_0" : 6
                    },
                    "indices" : 7,
                    "material" : 1
                }
            ]
        }
    ],
    "accessors" : [
        {
            "bufferView" : 0,
            "componentType" : 5126,
            "count" : 6347,
            "max" : [
                0.7699999809265137,
                1.5328271389007568,
                0.7699999809265137
            ],
            "min" : [
                -0.7699999809265137,
                -0.44648218154907227,
                -0.7699999809265137
            ],
            "type" : "VEC3"
        },
        {
            "bufferView" : 1,
            "componentType" : 5126,
            "count" : 6347,
            "type" : "VEC3"
        },
        {
            "bufferView" : 2,
            "componentType" : 5126,
            "count" : 6347,
            "type" : "VEC2"
        },
        {
            "bufferView" : 3,
            "componentType" : 5123,
            "count" : 27486,
            "type" : "SCALAR"
        },
        {
            "bufferView" : 4,
            "componentType" : 5126,
            "count" : 4644,
            "max" : [
                0.7584190368652344,
                1.5328271389007568,
                0.7587393522262573
            ],
            "min" : [
                -0.7584190368652344,
                -0.49603307247161865,
                -0.7587392926216125
            ],
            "type" : "VEC3"
        },
        {
            "bufferView" : 5,
            "componentType" : 5126,
            "count" : 4644,
            "type" : "VEC3"
        },
        {
            "bufferView" : 6,
            "componentType" : 5126,
            "count" : 4644,
            "type" : "VEC2"
        },
        {
            "bufferView" : 7,
            "componentType" : 5123,
            "count" : 14262,
            "type" : "SCALAR"
        }
    ],
    "bufferViews" : [
        {
            "buffer" : 0,
            "byteLength" : 76164,
            "byteOffset" : 0
        },
        {
            "buffer" : 0,
            "byteLength" : 76164,
            "byteOffset" : 76164
        },
        {
            "buffer" : 0,
            "byteLength" : 50776,
            "byteOffset" : 152328
        },
        {
            "buffer" : 0,
            "byteLength" : 54972,
            "byteOffset" : 203104
        },
        {
            "buffer" : 0,
            "byteLength" : 55728,
            "byteOffset" : 258076
        },
        {
            "buffer" : 0,
            "byteLength" : 55728,
            "byteOffset" : 313804
        },
        {
            "buffer" : 0,
            "byteLength" : 37152,
            "byteOffset" : 369532
        },
        {
            "buffer" : 0,
            "byteLength" : 28524,
            "byteOffset" : 406684
        }
    ],
    "buffers" : [
        {
            "byteLength" : 435208,
            "uri" : "data:application/octet-stream;base64,"
        }
    ]
}
